<svg width="7" height="12" viewBox="0 0 7 12" fill="none" xmlns="http://www.w3.org/2000/svg">
<path d="M2.60419 8.70485C2.61453 8.08975 2.68431 7.60387 2.81353 7.24721C2.94276 6.89055 3.20638 6.49513 3.60438 6.06093L4.62008 5.01422C5.05428 4.52317 5.27137 3.99594 5.27137 3.43252C5.27137 2.88978 5.12923 2.46593 4.84493 2.16096C4.56064 1.85082 4.14712 1.69575 3.60438 1.69575C3.07715 1.69575 2.6533 1.83531 2.33282 2.11444C2.01235 2.39356 1.85211 2.76831 1.85211 3.23869H0.417725C0.428063 2.40132 0.725277 1.72677 1.30937 1.21504C1.89863 0.698145 2.66363 0.439697 3.60438 0.439697C4.58132 0.439697 5.34115 0.703314 5.88389 1.23055C6.4318 1.75261 6.70576 2.4711 6.70576 3.386C6.70576 4.29057 6.28707 5.18221 5.4497 6.06093L4.60458 6.8983C4.22724 7.31699 4.03858 7.91917 4.03858 8.70485H2.60419ZM2.54216 11.1627C2.54216 10.9301 2.61195 10.7363 2.75151 10.5812C2.89624 10.4209 3.10816 10.3408 3.38729 10.3408C3.66641 10.3408 3.87834 10.4209 4.02307 10.5812C4.1678 10.7363 4.24017 10.9301 4.24017 11.1627C4.24017 11.3953 4.1678 11.5891 4.02307 11.7442C3.87834 11.8941 3.66641 11.969 3.38729 11.969C3.10816 11.969 2.89624 11.8941 2.75151 11.7442C2.61195 11.5891 2.54216 11.3953 2.54216 11.1627Z" fill="#2F80ED"/>
</svg>
