<svg width="23" height="22" viewBox="0 0 23 22" fill="none" xmlns="http://www.w3.org/2000/svg">
<path d="M3.03013 13.1658C4.15134 13.1658 5.06026 12.2579 5.06026 11.1381C5.06026 10.0182 4.15134 9.11035 3.03013 9.11035C1.90892 9.11035 1 10.0182 1 11.1381C1 12.2579 1.90892 13.1658 3.03013 13.1658Z" stroke="white" stroke-miterlimit="10"/>
<path d="M9.12065 4.24425C9.56913 4.24425 9.9327 3.88111 9.9327 3.43316C9.9327 2.98521 9.56913 2.62207 9.12065 2.62207C8.67216 2.62207 8.30859 2.98521 8.30859 3.43316C8.30859 3.88111 8.67216 4.24425 9.12065 4.24425Z" stroke="white" stroke-miterlimit="10"/>
<path d="M14.8049 21.2767H5.0603C5.0603 18.4379 7.09043 16.4102 9.93262 16.4102C12.7748 16.4102 14.8049 18.4379 14.8049 21.2767Z" stroke="white" stroke-miterlimit="10"/>
<path d="M22.1134 9.11066H12.3688C12.3688 6.27186 14.3989 4.24414 17.2411 4.24414C20.0833 4.24414 22.1134 6.6774 22.1134 9.11066Z" stroke="white" stroke-miterlimit="10"/>
<path d="M15.2109 4.64989V1H19.2712V4.64989" stroke="white" stroke-miterlimit="10"/>
<path d="M9.93262 3.43359H15.211" stroke="white" stroke-miterlimit="10"/>
<path d="M4.24817 9.51621L8.30843 4.24414" stroke="white" stroke-miterlimit="10"/>
<path d="M4.24805 12.3555L8.30831 16.4109" stroke="white" stroke-miterlimit="10"/>
</svg>
