<svg width="28" height="14" viewBox="0 0 28 14" fill="none" xmlns="http://www.w3.org/2000/svg">
<path d="M1 6.779C8.30847 -0.926332 18.8652 -0.926332 26.5797 6.779C26.5797 6.779 22.1134 12.8622 13.5868 12.8622C5.06026 12.8622 1 6.779 1 6.779Z" stroke="white" stroke-miterlimit="10"/>
<path d="M20.4894 2.31836C21.3014 3.53499 21.3014 4.75162 21.3014 5.96825C21.3014 8.40151 20.0833 10.4292 18.4592 12.0514" stroke="white" stroke-miterlimit="10"/>
<path d="M8.30847 12.0511C7.09039 10.429 5.87231 8.40124 5.87231 6.37353C5.87231 5.15689 6.27834 3.53472 6.68437 2.72363" stroke="white" stroke-miterlimit="10"/>
<path d="M13.5868 7.9963C14.4837 7.9963 15.2109 7.27003 15.2109 6.37413C15.2109 5.47823 14.4837 4.75195 13.5868 4.75195C12.6898 4.75195 11.9626 5.47823 11.9626 6.37413C11.9626 7.27003 12.6898 7.9963 13.5868 7.9963Z" stroke="white" stroke-miterlimit="10"/>
</svg>
