<svg width="5" height="9" viewBox="0 0 5 9" fill="none" xmlns="http://www.w3.org/2000/svg">
<path d="M1.70985 6.4388C1.71744 5.98772 1.76861 5.63141 1.86337 5.36986C1.95814 5.10831 2.15146 4.81833 2.44333 4.49993L3.18818 3.73234C3.50658 3.37223 3.66579 2.98559 3.66579 2.57242C3.66579 2.17441 3.56155 1.86359 3.35307 1.63994C3.14458 1.41251 2.84134 1.29879 2.44333 1.29879C2.05669 1.29879 1.74586 1.40114 1.51085 1.60583C1.27583 1.81052 1.15833 2.08534 1.15833 2.43028H0.106445C0.114026 1.81621 0.331984 1.32154 0.760318 0.946271C1.19244 0.567214 1.75345 0.377686 2.44333 0.377686C3.15975 0.377686 3.71696 0.571005 4.11497 0.957642C4.51677 1.34049 4.71767 1.86738 4.71767 2.53831C4.71767 3.20166 4.41063 3.85553 3.79656 4.49993L3.1768 5.114C2.90009 5.42103 2.76174 5.86263 2.76174 6.4388H1.70985ZM1.66437 8.24121C1.66437 8.07064 1.71554 7.92849 1.81789 7.81478C1.92402 7.69727 2.07943 7.63851 2.28413 7.63851C2.48882 7.63851 2.64423 7.69727 2.75037 7.81478C2.8565 7.92849 2.90957 8.07064 2.90957 8.24121C2.90957 8.41179 2.8565 8.55394 2.75037 8.66765C2.64423 8.77758 2.48882 8.83254 2.28413 8.83254C2.07943 8.83254 1.92402 8.77758 1.81789 8.66765C1.71554 8.55394 1.66437 8.41179 1.66437 8.24121Z" fill="#008E90"/>
</svg>
