<?xml version="1.0" encoding="utf-8"?><svg viewBox="0 0 28 22" xmlns="http://www.w3.org/2000/svg" xmlns:xlink="http://www.w3.org/1999/xlink"><style>:root>svg{display:none}:root>svg:target{display:block}</style><svg fill="none" viewBox="0 0 5 9" id="icon-add-class" xmlns="http://www.w3.org/2000/svg"><path d="M1.71 6.439c.007-.451.059-.808.153-1.07.095-.26.288-.55.58-.87l.745-.767c.319-.36.478-.746.478-1.16 0-.398-.104-.708-.313-.932-.208-.227-.512-.341-.91-.341-.386 0-.697.102-.932.307-.235.205-.353.48-.353.824H.106C.114 1.816.332 1.322.76.946c.432-.379.993-.568 1.683-.568.717 0 1.274.193 1.672.58.402.382.603.91.603 1.58 0 .664-.307 1.318-.921 1.962l-.62.614c-.277.307-.415.749-.415 1.325H1.71zM1.664 8.24c0-.17.052-.313.154-.426.106-.118.261-.176.466-.176.205 0 .36.058.466.176a.6.6 0 01.16.426.6.6 0 01-.16.427c-.106.11-.261.165-.466.165-.205 0-.36-.055-.466-.165a.614.614 0 01-.154-.427z" fill="#008E90"/></svg><svg fill="none" viewBox="0 0 8 15" id="icon-back" xmlns="http://www.w3.org/2000/svg"><path d="M7 1L1 7.5 7 14" stroke="#000"/></svg><svg fill="none" viewBox="0 0 10 11" id="icon-close" xmlns="http://www.w3.org/2000/svg"><path d="M1 1.5l8 8M1 9.5l8-8" stroke="#fff"/></svg><svg fill="none" viewBox="0 0 28 14" id="icon-controls-01" xmlns="http://www.w3.org/2000/svg"><path d="M1 6.779c7.308-7.705 17.865-7.705 25.58 0 0 0-4.467 6.083-12.993 6.083C5.06 12.862 1 6.78 1 6.78z" stroke="#fff" stroke-miterlimit="10"/><path d="M20.49 2.318c.811 1.217.811 2.434.811 3.65 0 2.434-1.218 4.461-2.842 6.083M8.308 12.051C7.09 10.43 5.872 8.401 5.872 6.374c0-1.217.406-2.84.812-3.65M13.587 7.996a1.623 1.623 0 10.002-3.246 1.623 1.623 0 00-.002 3.246z" stroke="#fff" stroke-miterlimit="10"/></svg><svg fill="none" viewBox="0 0 22 22" id="icon-controls-02" xmlns="http://www.w3.org/2000/svg"><path d="M14.399 12.76l6.496-5.677L14.805 1 9.12 7.489l-5.279-.406-1.624 1.622 5.278 5.678 5.279 5.272 2.03-1.622-.406-5.272zM1 21.277l6.496-6.894" stroke="#fff" stroke-miterlimit="10"/></svg><svg fill="none" viewBox="0 0 23 22" id="icon-controls-03" xmlns="http://www.w3.org/2000/svg"><path d="M3.03 13.166A2.029 2.029 0 101 11.138c0 1.12.909 2.028 2.03 2.028zM9.12 4.244a.812.812 0 10.002-1.623.812.812 0 00-.001 1.623zM14.805 21.277H5.06c0-2.84 2.03-4.867 4.873-4.867 2.842 0 4.872 2.028 4.872 4.867zM22.113 9.11H12.37c0-2.838 2.03-4.866 4.872-4.866s4.872 2.433 4.872 4.867z" stroke="#fff" stroke-miterlimit="10"/><path d="M15.21 4.65V1h4.061v3.65M9.933 3.434h5.278M4.248 9.516l4.06-5.272M4.248 12.355l4.06 4.056" stroke="#fff" stroke-miterlimit="10"/></svg><svg fill="none" viewBox="0 0 17 22" id="icon-controls-04" xmlns="http://www.w3.org/2000/svg"><path d="M2.436 10.544l5.685 6.083 5.684-5.677M8.12 0v16.627M0 21.088h16.241" stroke="#fff" stroke-miterlimit="10"/></svg><svg fill="none" viewBox="0 0 24 16" id="icon-controls-05" xmlns="http://www.w3.org/2000/svg"><path d="M22.52 1H1v14.194h21.52V1z" stroke="#fff" stroke-miterlimit="10"/><path d="M1 1l10.963 7.3L22.519 1" stroke="#fff" stroke-miterlimit="10"/></svg><svg fill="none" viewBox="0 0 22 21" id="icon-controls-06" xmlns="http://www.w3.org/2000/svg"><path d="M16.429 13.571H5.872v6.895H16.43V13.57z" stroke="#fff" stroke-miterlimit="10"/><path d="M5.872 17.222H1V8.705c0-1.216.812-2.027 2.03-2.027h16.241c1.218 0 2.03.81 2.03 2.027v8.517H16.43" stroke="#fff" stroke-miterlimit="10"/><path d="M16.429 6.852V1H5.466v5.852M3.436 9.922H5.06" stroke="#fff" stroke-miterlimit="10"/></svg><svg fill="none" viewBox="0 0 7 12" id="icon-notification" xmlns="http://www.w3.org/2000/svg"><path d="M2.604 8.705c.01-.615.08-1.101.21-1.458.129-.356.392-.752.79-1.186L4.62 5.014c.434-.49.651-1.018.651-1.581 0-.543-.142-.967-.426-1.272-.284-.31-.698-.465-1.24-.465-.528 0-.952.14-1.272.418-.32.28-.48.654-.48 1.125H.417c.01-.838.307-1.512.891-2.024C1.9.698 2.664.44 3.604.44c.977 0 1.737.263 2.28.79.548.523.822 1.241.822 2.156 0 .905-.419 1.796-1.256 2.675l-.845.837c-.378.419-.566 1.021-.566 1.807H2.604zm-.062 2.458c0-.233.07-.427.21-.582.144-.16.356-.24.635-.24.28 0 .491.08.636.24a.82.82 0 01.217.582.82.82 0 01-.217.581c-.145.15-.357.225-.636.225s-.49-.075-.635-.225a.837.837 0 01-.21-.581z" fill="#2F80ED"/></svg></svg>